<svg xmlns="http://www.w3.org/2000/svg" viewBox="0 0 400 300" width="406" height="306" class="illustration styles_illustrationTablet__1DWOa"><g id="_291_ethereum_outline" data-name="#291_ethereum_outline"><path d="M161.14,175.57H108.62a1,1,0,0,1,0-2h52.52a1,1,0,0,1,0,2Z" fill="#dfeaef"></path><circle cx="108.62" cy="174.57" r="8.58" fill="#fff"></circle><path d="M108.62,184.16a9.59,9.59,0,1,1,9.58-9.59A9.6,9.6,0,0,1,108.62,184.16Zm0-17.17a7.59,7.59,0,1,0,7.58,7.58A7.59,7.59,0,0,0,108.62,167Z" fill="#dfeaef"></path><path d="M141.26,219.5H107.68a1,1,0,0,1,0-2h33l13.47-27.24a1,1,0,0,1,1.8.88l-13.75,27.8A1,1,0,0,1,141.26,219.5Z" fill="#dfeaef"></path><path d="M304.76,170.89H290.3a1,1,0,0,1-.91-.58l-5-11H265a1,1,0,0,1,0-2H285a1,1,0,0,1,.91.59l5,10.95h13.82a1,1,0,0,1,0,2Z" fill="#dfeaef"></path><path d="M125.46,140.54c-8.81,0-20.61-.1-24-.12a1,1,0,0,1-.63-.24L86.15,127.74a1,1,0,0,1,1.29-1.53l14.4,12.21c12.88.11,32.16.2,33.42,0a1,1,0,0,1,1.15.82,1,1,0,0,1-.78,1.15C135.08,140.51,130.82,140.54,125.46,140.54Z" fill="#dfeaef"></path><path d="M294.34,130H266.11a1,1,0,0,1,0-2h28.23a1,1,0,0,1,0,2Z" fill="#dfeaef"></path><path d="M166.87,110.52H123.44a1,1,0,0,1-1-1V89.92a1,1,0,0,1,2,0v18.6h42.43a1,1,0,0,1,0,2Z" fill="#dfeaef"></path><path d="M278.82,218.86a1,1,0,0,1-1-1V196.28l-22.7-12.37a1,1,0,1,1,1-1.75l23.21,12.65a1,1,0,0,1,.53.88v22.17A1,1,0,0,1,278.82,218.86Z" fill="#dfeaef"></path><path d="M259.77,103.57a1,1,0,0,1-.87-.51,1,1,0,0,1,.37-1.36l18.55-10.49V82.14a1,1,0,1,1,2,0v9.65a1,1,0,0,1-.51.87l-19.05,10.78A1,1,0,0,1,259.77,103.57Z" fill="#dfeaef"></path><circle cx="200" cy="150" r="76.3" fill="#7067CF"></circle><path d="M200,227.3A77.3,77.3,0,1,1,277.3,150,77.39,77.39,0,0,1,200,227.3Zm0-152.6A75.3,75.3,0,1,0,275.3,150,75.39,75.39,0,0,0,200,74.7Z" fill="#093f68"></path><circle cx="200" cy="150" r="64.05" fill="#fff"></circle><path d="M200,215.05A65.05,65.05,0,1,1,265.05,150,65.12,65.12,0,0,1,200,215.05ZM200,87A63.05,63.05,0,1,0,263.05,150,63.13,63.13,0,0,0,200,87Z" fill="#093f68"></path><polygon points="200 94.56 200 168.34 227.62 148.59 200 94.56" fill="#7067CF"></polygon><path d="M200,169.34a1,1,0,0,1-.46-.11,1,1,0,0,1-.54-.89V94.56a1,1,0,0,1,1.89-.45l27.62,54a1,1,0,0,1-.31,1.27l-27.62,19.76A1,1,0,0,1,200,169.34Zm1-70.62V166.4l25.34-18.12Z" fill="#093f68"></path><polygon points="200 94.56 200 168.34 172.38 148.59 200 94.56" fill="#7067CF"></polygon><path d="M200,169.34a1,1,0,0,1-.58-.18L171.8,149.4a1,1,0,0,1-.31-1.27l27.62-54a1,1,0,0,1,1.89.45v73.78a1,1,0,0,1-.54.89A1,1,0,0,1,200,169.34Zm-26.34-21.06L199,166.4V98.72Z" fill="#093f68"></path><polyline points="172.38 148.59 200 135.44 227.62 148.59" fill="#7067CF"></polyline><path d="M227.62,149.59a.94.94,0,0,1-.43-.1l-27.19-13-27.19,13a1,1,0,0,1-.86-1.8l27.62-13.16a1,1,0,0,1,.86,0l27.62,13.16a1,1,0,0,1-.43,1.9Z" fill="#093f68"></path><polygon points="227.95 155.39 200 177.01 200 205.44 227.95 155.39" fill="#7067CF"></polygon><path d="M200,206.44a1.07,1.07,0,0,1-.25,0,1,1,0,0,1-.75-1V177a1,1,0,0,1,.39-.79l27.94-21.62a1,1,0,0,1,1.49,1.28l-27.95,50.05A1,1,0,0,1,200,206.44Zm1-28.94v24.1l23.69-42.42Z" fill="#093f68"></path><polygon points="172.05 155.39 200 177.01 200 205.44 172.05 155.39" fill="#7067CF"></polygon><path d="M200,206.44a1,1,0,0,1-.87-.51l-27.95-50.05a1,1,0,0,1,1.49-1.28l27.94,21.62a1,1,0,0,1,.39.79v28.43a1,1,0,0,1-.75,1A1.07,1.07,0,0,1,200,206.44Zm-24.69-47.26L199,201.6V177.5Z" fill="#093f68"></path><circle cx="123.44" cy="81.34" r="8.58" fill="#fff"></circle><path d="M123.44,90.92A9.59,9.59,0,1,1,133,81.33,9.6,9.6,0,0,1,123.44,90.92Zm0-17.17A7.59,7.59,0,1,0,131,81.33,7.59,7.59,0,0,0,123.44,73.75Z" fill="#dfeaef"></path><circle cx="86.79" cy="126.97" r="8.58" fill="#fff"></circle><path d="M86.79,136.56A9.59,9.59,0,1,1,96.38,127,9.6,9.6,0,0,1,86.79,136.56Zm0-17.17A7.59,7.59,0,1,0,94.38,127,7.59,7.59,0,0,0,86.79,119.39Z" fill="#dfeaef"></path><circle cx="278.82" cy="226.3" r="8.45" fill="#fff"></circle><path d="M278.82,235.75a9.45,9.45,0,1,1,9.44-9.45A9.46,9.46,0,0,1,278.82,235.75Zm0-16.89a7.45,7.45,0,1,0,7.44,7.44A7.45,7.45,0,0,0,278.82,218.86Z" fill="#dfeaef"></path><circle cx="278.82" cy="73.7" r="8.45" fill="#fff"></circle><path d="M278.82,83.14a9.45,9.45,0,1,1,9.44-9.44A9.45,9.45,0,0,1,278.82,83.14Zm0-16.89a7.45,7.45,0,1,0,7.44,7.45A7.46,7.46,0,0,0,278.82,66.25Z" fill="#dfeaef"></path><circle cx="299.97" cy="128.97" r="8.45" fill="#fff"></circle><path d="M300,138.41a9.45,9.45,0,1,1,9.45-9.45A9.46,9.46,0,0,1,300,138.41Zm0-16.89a7.45,7.45,0,1,0,7.45,7.44A7.45,7.45,0,0,0,300,121.52Z" fill="#dfeaef"></path><circle cx="309.64" cy="169.89" r="8.45" fill="#fff"></circle><path d="M309.64,179.33a9.45,9.45,0,1,1,9.44-9.44A9.45,9.45,0,0,1,309.64,179.33Zm0-16.89a7.45,7.45,0,1,0,7.44,7.45A7.46,7.46,0,0,0,309.64,162.44Z" fill="#dfeaef"></path><circle cx="103.96" cy="218.5" r="8.58" fill="#fff"></circle><path d="M104,228.08a9.58,9.58,0,1,1,9.58-9.58A9.58,9.58,0,0,1,104,228.08Zm0-17.16a7.58,7.58,0,1,0,7.58,7.58A7.59,7.59,0,0,0,104,210.92Z" fill="#dfeaef"></path></g></svg>